<svg xmlns="http://www.w3.org/2000/svg" width="125" height="34" viewBox="0 0 125 34">
    <g fill="none" fill-rule="evenodd">
        <path fill="#0FA8FF" d="M3.964.717h104.162l-8.338 32.528H3.964c-2.088 0-3.336-1.679-3.336-3.659V4.376c0-1.98 1.248-3.66 3.336-3.66"/>
        <path fill="#FF3150" d="M121.419 33.245H99.788L108.126.717h13.293c2.087 0 3.335 1.679 3.335 3.659v25.21c0 1.98-1.248 3.66-3.335 3.66"/>
        <path fill="#FFFFFE" d="M97.7 33.22v.025h4.176v-.025c0-1.203-.888-2.13-2.088-2.13-1.2 0-2.088.927-2.088 2.13M99.785 25.088v.05c0 1.203.888 2.13 2.088 2.13 1.2 0 2.087-.927 2.087-2.13v-.05c0-1.203-.888-2.13-2.087-2.13-1.2 0-2.088.927-2.088 2.13M101.87 16.956v.05c0 1.203.887 2.13 2.087 2.13 1.2 0 2.088-.927 2.088-2.13v-.05c0-1.203-.888-2.13-2.088-2.13-1.2 0-2.088.927-2.088 2.13M103.954 8.824v.05c0 1.203.888 2.13 2.088 2.13 1.2 0 2.087-.927 2.087-2.13v-.05c0-1.203-.888-2.13-2.087-2.13-1.2 0-2.088.927-2.088 2.13M106.038.717v.025c0 1.203.888 2.13 2.088 2.13 1.2 0 2.088-.927 2.088-2.13V.717h-4.176zM82.747 25.677h9.431c.912 0 1.657-.752 1.657-1.704 0-.953-.745-1.73-1.657-1.73h-7.607V18.56h6.408c.911 0 1.655-.752 1.655-1.704 0-.953-.744-1.73-1.655-1.73H84.57v-3.558h7.488c.911 0 1.655-.752 1.655-1.704 0-.953-.744-1.73-1.655-1.73h-9.312c-1.031 0-1.847.853-1.847 1.93v13.683c0 1.078.816 1.93 1.847 1.93zm-11.775.3c2.52 0 4.512-.877 5.88-1.754.887-.551 1.295-1.328 1.295-2.456v-4.26c0-1.077-.816-1.93-1.848-1.93h-4.223c-.888 0-1.608.752-1.608 1.68 0 .927.72 1.654 1.608 1.654h2.495v2.506c-.935.701-2.135 1.052-3.479 1.052-2.976 0-5.088-2.356-5.088-5.563v-.05c0-2.983 2.136-5.464 4.824-5.464 1.584 0 2.664.452 3.672 1.203.264.2.6.401 1.128.401 1.007 0 1.823-.852 1.823-1.904 0-.752-.408-1.278-.768-1.554-1.512-1.103-3.191-1.704-5.735-1.704-5.087 0-8.807 4.085-8.807 9.072v.05c0 5.187 3.6 9.022 8.831 9.022zm-15.046-2.33v.05c0 1.203.888 2.13 2.088 2.13 1.2 0 2.088-.927 2.088-2.13v-.05c0-1.203-.888-2.13-2.088-2.13-1.2 0-2.088.927-2.088 2.13zm-8.983.25c0 1.078.816 1.93 1.848 1.93s1.848-.852 1.848-1.93V11.694h3.551c.936 0 1.704-.802 1.704-1.78 0-.976-.768-1.778-1.704-1.778H43.392c-.936 0-1.704.802-1.704 1.779 0 .977.768 1.78 1.704 1.78h3.551v12.204zm-21.203 0c0 1.078.816 1.93 1.848 1.93s1.847-.852 1.847-1.93V20.39l2.112-2.055 4.8 6.566c.408.551.84.927 1.56.927 1.08 0 1.871-.802 1.871-1.88 0-.576-.215-.977-.503-1.352l-5.16-6.767 4.727-4.611c.408-.401.672-.852.672-1.453 0-.953-.672-1.78-1.703-1.78-.648 0-1.104.276-1.56.752l-6.816 7.067v-5.89c0-1.077-.815-1.929-1.847-1.929s-1.848.852-1.848 1.93v13.984zm-11.193 0c0 1.078.816 1.93 1.848 1.93 1.031 0 1.847-.852 1.847-1.93V11.694h3.552c.936 0 1.704-.802 1.704-1.78 0-.976-.768-1.778-1.704-1.778H10.995c-.936 0-1.704.802-1.704 1.779 0 .977.768 1.78 1.704 1.78h3.552v12.204z"/>
    </g>
</svg>
