<svg width="40" height="40" viewBox="0 0 40 40" fill="none" xmlns="http://www.w3.org/2000/svg">
<circle cx="20" cy="20" r="19.5" stroke="#D9DBE2"/>
<mask id="mask0_239_747" style="mask-type:alpha" maskUnits="userSpaceOnUse" x="8" y="8" width="24" height="24">
<path fill-rule="evenodd" clip-rule="evenodd" d="M21.7396 19.999C21.7396 20.9603 20.9604 21.7407 19.998 21.7407C19.0355 21.7407 18.2563 20.9603 18.2563 19.999C18.2563 19.0378 19.0355 18.2574 19.998 18.2574C20.9604 18.2574 21.7396 19.0378 21.7396 19.999Z" fill="url(#paint0_linear_239_747)"/>
<path fill-rule="evenodd" clip-rule="evenodd" d="M12.8923 10.9052C13.1047 11.1455 13.0816 11.512 12.8425 11.7244C11.8182 12.6311 10.9795 13.7234 10.3629 14.9347C9.10189 17.4119 8.77055 20.3782 9.66748 23.245C11.4613 28.9822 17.4826 32.139 23.1093 30.3221C23.414 30.2238 23.7417 30.3913 23.84 30.6959C23.9395 31.0018 23.772 31.3283 23.4662 31.4278C17.2131 33.4486 10.5426 29.9313 8.55936 23.5921C7.56898 20.4231 7.93552 17.1449 9.32886 14.4079C10.0097 13.0704 10.9382 11.8604 12.0731 10.8554C12.3134 10.643 12.6811 10.6649 12.8923 10.9052" fill="url(#paint1_linear_239_747)"/>
<path fill-rule="evenodd" clip-rule="evenodd" d="M30.3285 16.7301C28.5359 11.0123 22.5134 7.86026 16.8867 9.67354C16.5808 9.77185 16.2543 9.60436 16.156 9.29972C16.0577 8.99386 16.2252 8.66738 16.5311 8.56907C22.7829 6.55431 29.4547 10.0607 31.4379 16.3817C32.4295 19.5422 32.0629 22.812 30.6684 25.5416C29.9729 26.9034 29.0226 28.1316 27.855 29.1451C27.6135 29.3551 27.2469 29.3296 27.0357 29.0881C26.8258 28.8453 26.8512 28.4788 27.094 28.2688C28.1463 27.3549 29.0056 26.2455 29.6355 25.0148C30.8965 22.5449 31.2267 19.5896 30.331 16.7301H30.3285Z" fill="url(#paint2_linear_239_747)"/>
<path fill-rule="evenodd" clip-rule="evenodd" d="M11.6767 19.2241C11.9971 19.2241 12.2569 19.4838 12.2569 19.8042C12.2569 24.1833 15.7912 27.7383 20.1241 27.7383C22.2251 27.7383 24.1986 26.9154 25.6854 25.4164C26.4306 24.6664 27.0059 23.7937 27.3967 22.8446C27.5181 22.5484 27.8579 22.4064 28.154 22.5278C28.4514 22.6492 28.5922 22.989 28.4708 23.2851C28.023 24.3763 27.3615 25.3776 26.5107 26.2345C24.8066 27.9519 22.537 28.8998 20.1254 28.8998C15.1419 28.8998 11.0978 24.8144 11.0978 19.8042C11.0978 19.4838 11.3575 19.2241 11.6779 19.2241" fill="url(#paint3_linear_239_747)"/>
<path fill-rule="evenodd" clip-rule="evenodd" d="M19.8959 12.2571C17.7925 12.2571 15.8214 13.0461 14.3395 14.4758C13.5749 15.2137 12.9899 16.0755 12.6027 17.01C12.4801 17.3062 12.1403 17.4482 11.8441 17.3244C11.548 17.2018 11.4072 16.862 11.5298 16.5658C11.9788 15.4808 12.6561 14.4867 13.5348 13.6396C15.2376 11.9986 17.4988 11.0956 19.8971 11.0956C24.8442 11.0956 28.904 14.9831 28.904 19.804C28.904 20.1256 28.6443 20.3842 28.3239 20.3842C28.0035 20.3842 27.7437 20.1244 27.7437 19.804C27.7437 15.6628 24.2434 12.2571 19.8971 12.2571" fill="url(#paint4_linear_239_747)"/>
<path fill-rule="evenodd" clip-rule="evenodd" d="M16.9251 16.293C17.1545 16.5163 17.1581 16.8853 16.9348 17.1135C16.1641 17.9024 15.7393 18.9522 15.7393 20.0749C15.7393 22.3943 17.5757 24.2561 19.804 24.2561C20.1245 24.2561 20.3842 24.5159 20.3842 24.8363C20.3842 25.1567 20.1245 25.4165 19.804 25.4165C16.9093 25.4165 14.579 23.0072 14.579 20.0737C14.579 18.6524 15.1203 17.3101 16.1046 16.3015C16.328 16.0721 16.6957 16.0685 16.9251 16.2918" fill="url(#paint5_linear_239_747)"/>
<path fill-rule="evenodd" clip-rule="evenodd" d="M19.2257 15.1608C19.2257 14.8404 19.4854 14.5806 19.8058 14.5806C22.8704 14.5806 25.418 16.9461 25.418 19.9222C25.418 21.3592 24.8257 22.7052 23.7625 23.7102C23.5295 23.9311 23.1617 23.9201 22.9421 23.6883C22.7212 23.4553 22.7321 23.0875 22.9651 22.8678C23.8026 22.0741 24.2577 21.0303 24.2577 19.9222C24.2577 17.6477 22.2915 15.7409 19.8058 15.7409C19.4854 15.7409 19.2257 15.4812 19.2257 15.1608" fill="url(#paint6_linear_239_747)"/>
</mask>
<g mask="url(#mask0_239_747)">
<path d="M33.2744 6.36351H6.3638V33.2741H33.2744V6.36351Z" fill="#8B96AC"/>
</g>
<mask id="mask1_239_747" style="mask-type:alpha" maskUnits="userSpaceOnUse" x="8" y="8" width="24" height="24">
<path fill-rule="evenodd" clip-rule="evenodd" d="M21.7407 19.9993C21.7407 20.9606 20.9615 21.7411 19.9989 21.7411C19.0364 21.7411 18.2571 20.9606 18.2571 19.9993C18.2571 19.038 19.0364 18.2576 19.9989 18.2576C20.9615 18.2576 21.7407 19.038 21.7407 19.9993Z" fill="black"/>
<path fill-rule="evenodd" clip-rule="evenodd" d="M12.8927 10.9055C13.1051 11.1458 13.0821 11.5124 12.8429 11.7248C11.8185 12.6315 10.9797 13.7239 10.3631 14.9352C9.10198 17.4125 8.77061 20.379 9.66761 23.2459C11.4616 28.9834 17.4833 32.1405 23.1105 30.3234C23.4152 30.2251 23.7429 30.3926 23.8412 30.6973C23.9408 31.0031 23.7733 31.3297 23.4674 31.4292C17.2139 33.4501 10.5428 29.9326 8.55941 23.5931C7.56894 20.4239 7.93551 17.1455 9.32896 14.4085C10.0099 13.0709 10.9385 11.8607 12.0734 10.8557C12.3137 10.6433 12.6815 10.6652 12.8927 10.9055Z" fill="black"/>
<path fill-rule="evenodd" clip-rule="evenodd" d="M30.3304 16.7305C28.5376 11.0124 22.5147 7.86025 16.8875 9.67363C16.5816 9.77194 16.2551 9.60444 16.1567 9.29979C16.0584 8.99391 16.2259 8.66741 16.5318 8.5691C22.7841 6.55423 29.4564 10.0608 31.4398 16.3821C32.4314 19.5428 32.0649 22.8127 30.6702 25.5425C29.9747 26.9043 29.0243 28.1327 27.8566 29.1462C27.6151 29.3562 27.2485 29.3307 27.0373 29.0891C26.8273 28.8464 26.8528 28.4798 27.0956 28.2698C28.148 27.3559 29.0073 26.2465 29.6373 25.0157C30.8984 22.5457 31.2286 19.5902 30.3328 16.7305H30.3304Z" fill="black"/>
<path fill-rule="evenodd" clip-rule="evenodd" d="M11.677 19.2247C11.9975 19.2247 12.2572 19.4845 12.2572 19.8049C12.2572 24.1842 15.7918 27.7393 20.1251 27.7393C22.2262 27.7393 24.1998 26.9164 25.6867 25.4173C26.432 24.6673 27.0074 23.7945 27.3982 22.8454C27.5196 22.5492 27.8595 22.4072 28.1557 22.5286C28.453 22.65 28.5938 22.9898 28.4724 23.286C28.0246 24.3771 27.363 25.3785 26.5122 26.2354C24.8079 27.9529 22.5382 28.9009 20.1263 28.9009C15.1424 28.9009 11.098 24.8153 11.098 19.8049C11.098 19.4845 11.3578 19.2247 11.6782 19.2247" fill="black"/>
<path fill-rule="evenodd" clip-rule="evenodd" d="M19.8969 12.2576C17.7933 12.2576 15.8221 13.0465 14.3401 14.4763C13.5754 15.2143 12.9903 16.0761 12.6031 17.0107C12.4805 17.3069 12.1407 17.4489 11.8445 17.3251C11.5483 17.2025 11.4075 16.8626 11.5301 16.5665C11.9792 15.4813 12.6565 14.4873 13.5353 13.6401C15.2383 11.9991 17.4996 11.096 19.8981 11.096C24.8455 11.096 28.9058 14.9837 28.9058 19.8048C28.9058 20.1265 28.646 20.385 28.3255 20.385C28.0051 20.385 27.7453 20.1253 27.7453 19.8048C27.7453 15.6634 24.2447 12.2576 19.8981 12.2576" fill="black"/>
<path fill-rule="evenodd" clip-rule="evenodd" d="M16.9258 16.2935C17.1552 16.5169 17.1589 16.8859 16.9355 17.114C16.1647 17.903 15.7399 18.9529 15.7399 20.0756C15.7399 22.3951 17.5764 24.2571 19.805 24.2571C20.1254 24.2571 20.3851 24.5168 20.3851 24.8373C20.3851 25.1577 20.1254 25.4174 19.805 25.4174C16.91 25.4174 14.5795 23.0081 14.5795 20.0744C14.5795 18.6531 15.1209 17.3107 16.1053 16.302C16.3286 16.0726 16.6964 16.069 16.9258 16.2923" fill="black"/>
<path fill-rule="evenodd" clip-rule="evenodd" d="M19.2266 15.161C19.2266 14.8406 19.4863 14.5808 19.8068 14.5808C22.8716 14.5808 25.4194 16.9465 25.4194 19.9227C25.4194 21.3598 24.8271 22.7058 23.7638 23.7108C23.5307 23.9317 23.1629 23.9208 22.9432 23.689C22.7224 23.4559 22.7333 23.0882 22.9663 22.8685C23.8038 22.0747 24.259 21.0308 24.259 19.9227C24.259 17.648 22.2926 15.7412 19.8068 15.7412C19.4863 15.7412 19.2266 15.4815 19.2266 15.161Z" fill="black"/>
</mask>
<g mask="url(#mask1_239_747)">
<path d="M33.2764 6.36359H6.36365V33.2756H33.2764V6.36359Z" fill="url(#paint7_linear_239_747)"/>
</g>
<defs>
<linearGradient id="paint0_linear_239_747" x1="18.2563" y1="19.999" x2="21.7396" y2="19.999" gradientUnits="userSpaceOnUse">
<stop offset="0.15" stop-color="#07E1BE"/>
<stop offset="0.55" stop-color="#24B4D6"/>
<stop offset="1" stop-color="#4D75F7"/>
</linearGradient>
<linearGradient id="paint1_linear_239_747" x1="8" y1="21.354" x2="23.8687" y2="21.354" gradientUnits="userSpaceOnUse">
<stop offset="0.15" stop-color="#07E1BE"/>
<stop offset="0.55" stop-color="#24B4D6"/>
<stop offset="1" stop-color="#4D75F7"/>
</linearGradient>
<linearGradient id="paint2_linear_239_747" x1="16.1279" y1="18.6437" x2="31.9981" y2="18.6437" gradientUnits="userSpaceOnUse">
<stop offset="0.15" stop-color="#07E1BE"/>
<stop offset="0.55" stop-color="#24B4D6"/>
<stop offset="1" stop-color="#4D75F7"/>
</linearGradient>
<linearGradient id="paint3_linear_239_747" x1="11.0978" y1="24.0619" x2="28.5144" y2="24.0619" gradientUnits="userSpaceOnUse">
<stop offset="0.15" stop-color="#07E1BE"/>
<stop offset="0.55" stop-color="#24B4D6"/>
<stop offset="1" stop-color="#4D75F7"/>
</linearGradient>
<linearGradient id="paint4_linear_239_747" x1="11.4855" y1="15.7399" x2="28.904" y2="15.7399" gradientUnits="userSpaceOnUse">
<stop offset="0.15" stop-color="#07E1BE"/>
<stop offset="0.55" stop-color="#24B4D6"/>
<stop offset="1" stop-color="#4D75F7"/>
</linearGradient>
<linearGradient id="paint5_linear_239_747" x1="14.579" y1="20.7716" x2="20.3842" y2="20.7716" gradientUnits="userSpaceOnUse">
<stop offset="0.15" stop-color="#07E1BE"/>
<stop offset="0.55" stop-color="#24B4D6"/>
<stop offset="1" stop-color="#4D75F7"/>
</linearGradient>
<linearGradient id="paint6_linear_239_747" x1="19.2257" y1="19.2249" x2="25.418" y2="19.2249" gradientUnits="userSpaceOnUse">
<stop offset="0.15" stop-color="#07E1BE"/>
<stop offset="0.55" stop-color="#24B4D6"/>
<stop offset="1" stop-color="#4D75F7"/>
</linearGradient>
<linearGradient id="paint7_linear_239_747" x1="6.36365" y1="19.8196" x2="33.2764" y2="19.8196" gradientUnits="userSpaceOnUse">
<stop offset="0.15" stop-color="#07E1BE"/>
<stop offset="0.55" stop-color="#24B4D6"/>
<stop offset="1" stop-color="#4D75F7"/>
</linearGradient>
</defs>
</svg>
